<mxfile>
    <diagram id="R2lEEEUBdFMjLlhIrx00" name="Page-1">
        <mxGraphModel dx="1636" dy="365" grid="1" gridSize="10" guides="1" tooltips="1" connect="1" arrows="1" fold="1" page="1" pageScale="1" pageWidth="850" pageHeight="1100" math="0" shadow="0" extFonts="Permanent Marker^https://fonts.googleapis.com/css?family=Permanent+Marker">
            <root>
                <mxCell id="0"/>
                <mxCell id="1" parent="0"/>
                <mxCell id="C-vyLk0tnHw3VtMMgP7b-1" value="" style="edgeStyle=entityRelationEdgeStyle;endArrow=ERzeroToMany;startArrow=ERone;endFill=1;startFill=0;" parent="1" source="C-vyLk0tnHw3VtMMgP7b-24" target="C-vyLk0tnHw3VtMMgP7b-6" edge="1">
                    <mxGeometry width="100" height="100" relative="1" as="geometry">
                        <mxPoint x="340" y="720" as="sourcePoint"/>
                        <mxPoint x="440" y="620" as="targetPoint"/>
                    </mxGeometry>
                </mxCell>
                <mxCell id="C-vyLk0tnHw3VtMMgP7b-2" value="Brotherhood_User" style="shape=table;startSize=30;container=1;collapsible=1;childLayout=tableLayout;fixedRows=1;rowLines=0;fontStyle=1;align=center;resizeLast=1;" parent="1" vertex="1">
                    <mxGeometry x="460" y="120" width="250" height="130" as="geometry"/>
                </mxCell>
                <mxCell id="C-vyLk0tnHw3VtMMgP7b-3" value="" style="shape=partialRectangle;collapsible=0;dropTarget=0;pointerEvents=0;fillColor=none;points=[[0,0.5],[1,0.5]];portConstraint=eastwest;top=0;left=0;right=0;bottom=1;" parent="C-vyLk0tnHw3VtMMgP7b-2" vertex="1">
                    <mxGeometry y="30" width="250" height="30" as="geometry"/>
                </mxCell>
                <mxCell id="C-vyLk0tnHw3VtMMgP7b-4" value="PK" style="shape=partialRectangle;overflow=hidden;connectable=0;fillColor=none;top=0;left=0;bottom=0;right=0;fontStyle=1;" parent="C-vyLk0tnHw3VtMMgP7b-3" vertex="1">
                    <mxGeometry width="30" height="30" as="geometry"/>
                </mxCell>
                <mxCell id="C-vyLk0tnHw3VtMMgP7b-5" value="id INT NOT NULL AUTO INCREMENT " style="shape=partialRectangle;overflow=hidden;connectable=0;fillColor=none;top=0;left=0;bottom=0;right=0;align=left;spacingLeft=6;fontStyle=5;" parent="C-vyLk0tnHw3VtMMgP7b-3" vertex="1">
                    <mxGeometry x="30" width="220" height="30" as="geometry"/>
                </mxCell>
                <mxCell id="C-vyLk0tnHw3VtMMgP7b-6" value="" style="shape=partialRectangle;collapsible=0;dropTarget=0;pointerEvents=0;fillColor=none;points=[[0,0.5],[1,0.5]];portConstraint=eastwest;top=0;left=0;right=0;bottom=0;" parent="C-vyLk0tnHw3VtMMgP7b-2" vertex="1">
                    <mxGeometry y="60" width="250" height="30" as="geometry"/>
                </mxCell>
                <mxCell id="C-vyLk0tnHw3VtMMgP7b-7" value="FK1" style="shape=partialRectangle;overflow=hidden;connectable=0;fillColor=none;top=0;left=0;bottom=0;right=0;" parent="C-vyLk0tnHw3VtMMgP7b-6" vertex="1">
                    <mxGeometry width="30" height="30" as="geometry"/>
                </mxCell>
                <mxCell id="C-vyLk0tnHw3VtMMgP7b-8" value="user_id INT NOT NULL" style="shape=partialRectangle;overflow=hidden;connectable=0;fillColor=none;top=0;left=0;bottom=0;right=0;align=left;spacingLeft=6;" parent="C-vyLk0tnHw3VtMMgP7b-6" vertex="1">
                    <mxGeometry x="30" width="220" height="30" as="geometry"/>
                </mxCell>
                <mxCell id="C-vyLk0tnHw3VtMMgP7b-9" value="" style="shape=partialRectangle;collapsible=0;dropTarget=0;pointerEvents=0;fillColor=none;points=[[0,0.5],[1,0.5]];portConstraint=eastwest;top=0;left=0;right=0;bottom=0;" parent="C-vyLk0tnHw3VtMMgP7b-2" vertex="1">
                    <mxGeometry y="90" width="250" height="30" as="geometry"/>
                </mxCell>
                <mxCell id="C-vyLk0tnHw3VtMMgP7b-10" value="FK2" style="shape=partialRectangle;overflow=hidden;connectable=0;fillColor=none;top=0;left=0;bottom=0;right=0;" parent="C-vyLk0tnHw3VtMMgP7b-9" vertex="1">
                    <mxGeometry width="30" height="30" as="geometry"/>
                </mxCell>
                <mxCell id="C-vyLk0tnHw3VtMMgP7b-11" value="brotherhood_id INT NOT NULL" style="shape=partialRectangle;overflow=hidden;connectable=0;fillColor=none;top=0;left=0;bottom=0;right=0;align=left;spacingLeft=6;" parent="C-vyLk0tnHw3VtMMgP7b-9" vertex="1">
                    <mxGeometry x="30" width="220" height="30" as="geometry"/>
                </mxCell>
                <mxCell id="C-vyLk0tnHw3VtMMgP7b-13" value="Brotherhood" style="shape=table;startSize=30;container=1;collapsible=1;childLayout=tableLayout;fixedRows=1;rowLines=0;fontStyle=1;align=center;resizeLast=1;" parent="1" vertex="1">
                    <mxGeometry x="460" y="320" width="250" height="90" as="geometry"/>
                </mxCell>
                <mxCell id="C-vyLk0tnHw3VtMMgP7b-14" value="" style="shape=partialRectangle;collapsible=0;dropTarget=0;pointerEvents=0;fillColor=none;points=[[0,0.5],[1,0.5]];portConstraint=eastwest;top=0;left=0;right=0;bottom=1;" parent="C-vyLk0tnHw3VtMMgP7b-13" vertex="1">
                    <mxGeometry y="30" width="250" height="30" as="geometry"/>
                </mxCell>
                <mxCell id="C-vyLk0tnHw3VtMMgP7b-15" value="PK" style="shape=partialRectangle;overflow=hidden;connectable=0;fillColor=none;top=0;left=0;bottom=0;right=0;fontStyle=1;" parent="C-vyLk0tnHw3VtMMgP7b-14" vertex="1">
                    <mxGeometry width="30" height="30" as="geometry"/>
                </mxCell>
                <mxCell id="C-vyLk0tnHw3VtMMgP7b-16" value="id INT AUTO_INCREMENT " style="shape=partialRectangle;overflow=hidden;connectable=0;fillColor=none;top=0;left=0;bottom=0;right=0;align=left;spacingLeft=6;fontStyle=5;" parent="C-vyLk0tnHw3VtMMgP7b-14" vertex="1">
                    <mxGeometry x="30" width="220" height="30" as="geometry"/>
                </mxCell>
                <mxCell id="C-vyLk0tnHw3VtMMgP7b-23" value="User" style="shape=table;startSize=30;container=1;collapsible=1;childLayout=tableLayout;fixedRows=1;rowLines=0;fontStyle=1;align=center;resizeLast=1;" parent="1" vertex="1">
                    <mxGeometry x="120" y="80" width="250" height="90" as="geometry"/>
                </mxCell>
                <mxCell id="C-vyLk0tnHw3VtMMgP7b-24" value="" style="shape=partialRectangle;collapsible=0;dropTarget=0;pointerEvents=0;fillColor=none;points=[[0,0.5],[1,0.5]];portConstraint=eastwest;top=0;left=0;right=0;bottom=1;" parent="C-vyLk0tnHw3VtMMgP7b-23" vertex="1">
                    <mxGeometry y="30" width="250" height="30" as="geometry"/>
                </mxCell>
                <mxCell id="C-vyLk0tnHw3VtMMgP7b-25" value="PK" style="shape=partialRectangle;overflow=hidden;connectable=0;fillColor=none;top=0;left=0;bottom=0;right=0;fontStyle=1;" parent="C-vyLk0tnHw3VtMMgP7b-24" vertex="1">
                    <mxGeometry width="30" height="30" as="geometry"/>
                </mxCell>
                <mxCell id="C-vyLk0tnHw3VtMMgP7b-26" value="id INT AUTO_INCREMENT " style="shape=partialRectangle;overflow=hidden;connectable=0;fillColor=none;top=0;left=0;bottom=0;right=0;align=left;spacingLeft=6;fontStyle=5;" parent="C-vyLk0tnHw3VtMMgP7b-24" vertex="1">
                    <mxGeometry x="30" width="220" height="30" as="geometry"/>
                </mxCell>
                <mxCell id="C-vyLk0tnHw3VtMMgP7b-27" value="" style="shape=partialRectangle;collapsible=0;dropTarget=0;pointerEvents=0;fillColor=none;points=[[0,0.5],[1,0.5]];portConstraint=eastwest;top=0;left=0;right=0;bottom=0;" parent="C-vyLk0tnHw3VtMMgP7b-23" vertex="1">
                    <mxGeometry y="60" width="250" height="20" as="geometry"/>
                </mxCell>
                <mxCell id="C-vyLk0tnHw3VtMMgP7b-28" value="" style="shape=partialRectangle;overflow=hidden;connectable=0;fillColor=none;top=0;left=0;bottom=0;right=0;" parent="C-vyLk0tnHw3VtMMgP7b-27" vertex="1">
                    <mxGeometry width="30" height="20" as="geometry"/>
                </mxCell>
                <mxCell id="C-vyLk0tnHw3VtMMgP7b-29" value="" style="shape=partialRectangle;overflow=hidden;connectable=0;fillColor=none;top=0;left=0;bottom=0;right=0;align=left;spacingLeft=6;fontStyle=1" parent="C-vyLk0tnHw3VtMMgP7b-27" vertex="1">
                    <mxGeometry x="30" width="220" height="20" as="geometry"/>
                </mxCell>
                <mxCell id="K0uxiHMsOOJmmkQa4cCR-33" style="edgeStyle=orthogonalEdgeStyle;rounded=0;orthogonalLoop=1;jettySize=auto;html=1;exitX=0.5;exitY=0;exitDx=0;exitDy=0;entryX=0.56;entryY=1.1;entryDx=0;entryDy=0;entryPerimeter=0;" parent="1" source="oQ7m4SgAl_C9msteWYQ--1" target="C-vyLk0tnHw3VtMMgP7b-27" edge="1">
                    <mxGeometry relative="1" as="geometry"/>
                </mxCell>
                <mxCell id="oQ7m4SgAl_C9msteWYQ--1" value="surname VARCHAR(50) NOT NULL" style="rounded=0;whiteSpace=wrap;html=1;" parent="1" vertex="1">
                    <mxGeometry x="120" y="140" width="250" height="30" as="geometry"/>
                </mxCell>
                <mxCell id="oQ7m4SgAl_C9msteWYQ--2" value="email VARCHAR(100) NOT NULL" style="rounded=0;whiteSpace=wrap;html=1;" parent="1" vertex="1">
                    <mxGeometry x="120" y="170" width="250" height="30" as="geometry"/>
                </mxCell>
                <mxCell id="oQ7m4SgAl_C9msteWYQ--3" value="password VARCHAR(20) NOT NULL" style="rounded=0;whiteSpace=wrap;html=1;" parent="1" vertex="1">
                    <mxGeometry x="120" y="200" width="250" height="30" as="geometry"/>
                </mxCell>
                <mxCell id="oQ7m4SgAl_C9msteWYQ--10" value="terms CHAR(2) NOT NULL" style="rounded=0;whiteSpace=wrap;html=1;" parent="1" vertex="1">
                    <mxGeometry x="120" y="230" width="250" height="30" as="geometry"/>
                </mxCell>
                <mxCell id="oQ7m4SgAl_C9msteWYQ--12" value="&lt;b&gt;Events&lt;/b&gt;" style="rounded=0;whiteSpace=wrap;html=1;" parent="1" vertex="1">
                    <mxGeometry x="460" y="590" width="250" height="30" as="geometry"/>
                </mxCell>
                <mxCell id="oQ7m4SgAl_C9msteWYQ--13" value="&lt;b&gt;PK&lt;/b&gt;" style="rounded=0;whiteSpace=wrap;html=1;" parent="1" vertex="1">
                    <mxGeometry x="460" y="620" width="40" height="30" as="geometry"/>
                </mxCell>
                <mxCell id="oQ7m4SgAl_C9msteWYQ--14" value="&lt;b&gt;id INT AUTO_INCREMENT&lt;/b&gt;" style="rounded=0;whiteSpace=wrap;html=1;" parent="1" vertex="1">
                    <mxGeometry x="500" y="620" width="210" height="30" as="geometry"/>
                </mxCell>
                <mxCell id="oQ7m4SgAl_C9msteWYQ--15" value="date DATETIME NOT NULL" style="rounded=0;whiteSpace=wrap;html=1;" parent="1" vertex="1">
                    <mxGeometry x="460" y="650" width="250" height="30" as="geometry"/>
                </mxCell>
                <mxCell id="oQ7m4SgAl_C9msteWYQ--17" value="address VARCHAR(255) NOT NULL" style="rounded=0;whiteSpace=wrap;html=1;" parent="1" vertex="1">
                    <mxGeometry x="460" y="680" width="250" height="30" as="geometry"/>
                </mxCell>
                <mxCell id="oQ7m4SgAl_C9msteWYQ--18" value="&lt;b&gt;brotherhood_id INT NOT NULL&lt;/b&gt;" style="rounded=0;whiteSpace=wrap;html=1;" parent="1" vertex="1">
                    <mxGeometry x="500" y="710" width="210" height="30" as="geometry"/>
                </mxCell>
                <mxCell id="oQ7m4SgAl_C9msteWYQ--19" value="&lt;b&gt;FK&lt;/b&gt;" style="rounded=0;whiteSpace=wrap;html=1;" parent="1" vertex="1">
                    <mxGeometry x="460" y="710" width="40" height="30" as="geometry"/>
                </mxCell>
                <mxCell id="oQ7m4SgAl_C9msteWYQ--20" value="&lt;b&gt;Vinhos&lt;/b&gt;" style="rounded=0;whiteSpace=wrap;html=1;" parent="1" vertex="1">
                    <mxGeometry x="-430" y="60" width="205" height="30" as="geometry"/>
                </mxCell>
                <mxCell id="oQ7m4SgAl_C9msteWYQ--21" value="&lt;b&gt;PK&lt;/b&gt;" style="rounded=0;whiteSpace=wrap;html=1;" parent="1" vertex="1">
                    <mxGeometry x="-430" y="90" width="40" height="30" as="geometry"/>
                </mxCell>
                <mxCell id="oQ7m4SgAl_C9msteWYQ--22" value="&lt;b&gt;id INT AUTO_INCREMENT &lt;/b&gt;" style="rounded=0;whiteSpace=wrap;html=1;" parent="1" vertex="1">
                    <mxGeometry x="-390" y="90" width="165" height="30" as="geometry"/>
                </mxCell>
                <mxCell id="oQ7m4SgAl_C9msteWYQ--23" value="name VARCHAR(50) NOT NULL" style="rounded=0;whiteSpace=wrap;html=1;" parent="1" vertex="1">
                    <mxGeometry x="120" y="260" width="250" height="30" as="geometry"/>
                </mxCell>
                <mxCell id="C-vyLk0tnHw3VtMMgP7b-12" value="" style="edgeStyle=entityRelationEdgeStyle;endArrow=ERzeroToMany;startArrow=ERone;endFill=1;startFill=0;entryX=1;entryY=0.5;entryDx=0;entryDy=0;exitX=1;exitY=0.5;exitDx=0;exitDy=0;" parent="1" source="C-vyLk0tnHw3VtMMgP7b-14" target="C-vyLk0tnHw3VtMMgP7b-6" edge="1">
                    <mxGeometry width="100" height="100" relative="1" as="geometry">
                        <mxPoint x="400" y="180" as="sourcePoint"/>
                        <mxPoint x="460" y="205" as="targetPoint"/>
                    </mxGeometry>
                </mxCell>
                <mxCell id="K0uxiHMsOOJmmkQa4cCR-17" value="&lt;b&gt;Posts&lt;/b&gt;" style="rounded=0;whiteSpace=wrap;html=1;" parent="1" vertex="1">
                    <mxGeometry x="130" y="725" width="240" height="30" as="geometry"/>
                </mxCell>
                <mxCell id="K0uxiHMsOOJmmkQa4cCR-19" value="&lt;b&gt;id INT AUTO_INCREMENT&lt;/b&gt;" style="rounded=0;whiteSpace=wrap;html=1;" parent="1" vertex="1">
                    <mxGeometry x="160" y="755" width="210" height="30" as="geometry"/>
                </mxCell>
                <mxCell id="K0uxiHMsOOJmmkQa4cCR-20" value="&lt;b&gt;PK&lt;/b&gt;" style="rounded=0;whiteSpace=wrap;html=1;" parent="1" vertex="1">
                    <mxGeometry x="130" y="755" width="30" height="30" as="geometry"/>
                </mxCell>
                <mxCell id="K0uxiHMsOOJmmkQa4cCR-21" value="&lt;b&gt;user_id INT NOT NULL&lt;/b&gt;" style="rounded=0;whiteSpace=wrap;html=1;" parent="1" vertex="1">
                    <mxGeometry x="160" y="815" width="210" height="30" as="geometry"/>
                </mxCell>
                <mxCell id="K0uxiHMsOOJmmkQa4cCR-22" value="&lt;b&gt;FK&lt;/b&gt;" style="rounded=0;whiteSpace=wrap;html=1;" parent="1" vertex="1">
                    <mxGeometry x="130" y="785" width="30" height="30" as="geometry"/>
                </mxCell>
                <mxCell id="K0uxiHMsOOJmmkQa4cCR-24" value="&lt;b&gt;confraria_id INT NOT NULL&lt;/b&gt;" style="rounded=0;whiteSpace=wrap;html=1;" parent="1" vertex="1">
                    <mxGeometry x="160" y="785" width="210" height="30" as="geometry"/>
                </mxCell>
                <mxCell id="K0uxiHMsOOJmmkQa4cCR-25" value="&lt;b&gt;FK&lt;/b&gt;" style="rounded=0;whiteSpace=wrap;html=1;" parent="1" vertex="1">
                    <mxGeometry x="130" y="815" width="30" height="30" as="geometry"/>
                </mxCell>
                <mxCell id="K0uxiHMsOOJmmkQa4cCR-28" value="Texto VARCHAR(5000)&amp;nbsp;&amp;nbsp;" style="rounded=0;whiteSpace=wrap;html=1;" parent="1" vertex="1">
                    <mxGeometry x="130" y="845" width="240" height="30" as="geometry"/>
                </mxCell>
                <mxCell id="K0uxiHMsOOJmmkQa4cCR-31" value="name VARCHAR(50) NOT NULL" style="rounded=0;whiteSpace=wrap;html=1;" parent="1" vertex="1">
                    <mxGeometry x="460" y="380" width="250" height="30" as="geometry"/>
                </mxCell>
                <mxCell id="K0uxiHMsOOJmmkQa4cCR-32" value="Chanceler BOOLEAN" style="rounded=0;whiteSpace=wrap;html=1;" parent="1" vertex="1">
                    <mxGeometry x="460" y="250" width="250" height="30" as="geometry"/>
                </mxCell>
                <mxCell id="K0uxiHMsOOJmmkQa4cCR-35" value="&lt;b&gt;reactions&lt;/b&gt;" style="rounded=0;whiteSpace=wrap;html=1;" parent="1" vertex="1">
                    <mxGeometry x="-190" y="460" width="200" height="30" as="geometry"/>
                </mxCell>
                <mxCell id="K0uxiHMsOOJmmkQa4cCR-36" value="&lt;b&gt;id int AUTO_INCREMENT &lt;/b&gt;" style="rounded=0;whiteSpace=wrap;html=1;" parent="1" vertex="1">
                    <mxGeometry x="-150" y="490" width="160" height="30" as="geometry"/>
                </mxCell>
                <mxCell id="K0uxiHMsOOJmmkQa4cCR-37" value="&lt;b&gt;PK&lt;/b&gt;" style="rounded=0;whiteSpace=wrap;html=1;" parent="1" vertex="1">
                    <mxGeometry x="-190" y="490" width="40" height="30" as="geometry"/>
                </mxCell>
                <mxCell id="K0uxiHMsOOJmmkQa4cCR-41" value="&lt;b&gt;user_id NOT NULL&lt;/b&gt;" style="rounded=0;whiteSpace=wrap;html=1;" parent="1" vertex="1">
                    <mxGeometry x="-150" y="520" width="160" height="30" as="geometry"/>
                </mxCell>
                <mxCell id="K0uxiHMsOOJmmkQa4cCR-42" value="&lt;b&gt;posts_id NOT NULL&lt;/b&gt;" style="rounded=0;whiteSpace=wrap;html=1;" parent="1" vertex="1">
                    <mxGeometry x="-150" y="550" width="160" height="30" as="geometry"/>
                </mxCell>
                <mxCell id="K0uxiHMsOOJmmkQa4cCR-43" value="&lt;b&gt;FK&lt;/b&gt;" style="rounded=0;whiteSpace=wrap;html=1;" parent="1" vertex="1">
                    <mxGeometry x="-190" y="520" width="40" height="30" as="geometry"/>
                </mxCell>
                <mxCell id="K0uxiHMsOOJmmkQa4cCR-44" value="&lt;b&gt;FK&lt;/b&gt;" style="rounded=0;whiteSpace=wrap;html=1;" parent="1" vertex="1">
                    <mxGeometry x="-190" y="550" width="40" height="30" as="geometry"/>
                </mxCell>
                <mxCell id="K0uxiHMsOOJmmkQa4cCR-56" value="" style="edgeStyle=entityRelationEdgeStyle;fontSize=12;html=1;endArrow=ERzeroToMany;rounded=0;entryX=1;entryY=0.5;entryDx=0;entryDy=0;startArrow=ERone;startFill=0;exitX=1;exitY=0.25;exitDx=0;exitDy=0;endFill=1;" parent="1" source="K0uxiHMsOOJmmkQa4cCR-31" target="oQ7m4SgAl_C9msteWYQ--17" edge="1">
                    <mxGeometry width="100" height="100" relative="1" as="geometry">
                        <mxPoint x="710" y="470" as="sourcePoint"/>
                        <mxPoint x="810" y="560" as="targetPoint"/>
                    </mxGeometry>
                </mxCell>
                <mxCell id="K0uxiHMsOOJmmkQa4cCR-62" value="" style="edgeStyle=entityRelationEdgeStyle;fontSize=12;html=1;endArrow=ERzeroToMany;rounded=0;entryX=1;entryY=0;entryDx=0;entryDy=0;startArrow=ERone;startFill=0;endFill=1;exitX=0;exitY=0.75;exitDx=0;exitDy=0;" parent="1" source="K0uxiHMsOOJmmkQa4cCR-31" target="K0uxiHMsOOJmmkQa4cCR-24" edge="1">
                    <mxGeometry width="100" height="100" relative="1" as="geometry">
                        <mxPoint x="30" y="590" as="sourcePoint"/>
                        <mxPoint x="-20" y="640" as="targetPoint"/>
                    </mxGeometry>
                </mxCell>
                <mxCell id="K0uxiHMsOOJmmkQa4cCR-63" value="&lt;b&gt;Users_Events&lt;/b&gt;" style="rounded=0;whiteSpace=wrap;html=1;" parent="1" vertex="1">
                    <mxGeometry x="120" y="570" width="250" height="30" as="geometry"/>
                </mxCell>
                <mxCell id="K0uxiHMsOOJmmkQa4cCR-64" value="&lt;b&gt;id INT AUTO_INCREMENT &lt;/b&gt;" style="rounded=0;whiteSpace=wrap;html=1;" parent="1" vertex="1">
                    <mxGeometry x="160" y="600" width="210" height="30" as="geometry"/>
                </mxCell>
                <mxCell id="K0uxiHMsOOJmmkQa4cCR-65" value="&lt;b&gt;PK&lt;/b&gt;" style="rounded=0;whiteSpace=wrap;html=1;" parent="1" vertex="1">
                    <mxGeometry x="120" y="600" width="40" height="30" as="geometry"/>
                </mxCell>
                <mxCell id="K0uxiHMsOOJmmkQa4cCR-66" value="&lt;b&gt;user_id INT&amp;nbsp; NOT NULL&lt;/b&gt;" style="rounded=0;whiteSpace=wrap;html=1;" parent="1" vertex="1">
                    <mxGeometry x="160" y="630" width="210" height="30" as="geometry"/>
                </mxCell>
                <mxCell id="K0uxiHMsOOJmmkQa4cCR-67" value="&lt;b&gt;eventos_id INT NOT NULL&lt;/b&gt;" style="rounded=0;whiteSpace=wrap;html=1;" parent="1" vertex="1">
                    <mxGeometry x="160" y="660" width="210" height="35" as="geometry"/>
                </mxCell>
                <mxCell id="K0uxiHMsOOJmmkQa4cCR-68" value="&lt;b&gt;FK&lt;/b&gt;" style="rounded=0;whiteSpace=wrap;html=1;" parent="1" vertex="1">
                    <mxGeometry x="120" y="630" width="40" height="30" as="geometry"/>
                </mxCell>
                <mxCell id="K0uxiHMsOOJmmkQa4cCR-69" value="&lt;b&gt;FK&lt;/b&gt;" style="rounded=0;whiteSpace=wrap;html=1;" parent="1" vertex="1">
                    <mxGeometry x="120" y="660" width="40" height="35" as="geometry"/>
                </mxCell>
                <mxCell id="K0uxiHMsOOJmmkQa4cCR-72" value="" style="edgeStyle=entityRelationEdgeStyle;fontSize=12;html=1;endArrow=ERzeroToMany;rounded=0;exitX=1;exitY=0.25;exitDx=0;exitDy=0;entryX=1;entryY=0.25;entryDx=0;entryDy=0;startArrow=ERone;startFill=0;endFill=1;" parent="1" source="oQ7m4SgAl_C9msteWYQ--23" target="K0uxiHMsOOJmmkQa4cCR-66" edge="1">
                    <mxGeometry width="100" height="100" relative="1" as="geometry">
                        <mxPoint x="440" y="340" as="sourcePoint"/>
                        <mxPoint x="440" y="510" as="targetPoint"/>
                    </mxGeometry>
                </mxCell>
                <mxCell id="K0uxiHMsOOJmmkQa4cCR-74" value="" style="edgeStyle=entityRelationEdgeStyle;fontSize=12;html=1;endArrow=ERzeroToMany;rounded=0;exitX=0;exitY=0.5;exitDx=0;exitDy=0;entryX=1;entryY=1;entryDx=0;entryDy=0;startArrow=ERone;startFill=0;endFill=1;" parent="1" source="oQ7m4SgAl_C9msteWYQ--13" target="K0uxiHMsOOJmmkQa4cCR-66" edge="1">
                    <mxGeometry width="100" height="100" relative="1" as="geometry">
                        <mxPoint x="410" y="640" as="sourcePoint"/>
                        <mxPoint x="510" y="540" as="targetPoint"/>
                    </mxGeometry>
                </mxCell>
                <mxCell id="K0uxiHMsOOJmmkQa4cCR-77" value="" style="edgeStyle=entityRelationEdgeStyle;fontSize=12;html=1;endArrow=ERzeroToMany;startArrow=ERone;rounded=0;exitX=1;exitY=0.25;exitDx=0;exitDy=0;startFill=0;endFill=1;entryX=0;entryY=0.5;entryDx=0;entryDy=0;" parent="1" source="K0uxiHMsOOJmmkQa4cCR-36" target="oQ7m4SgAl_C9msteWYQ--23" edge="1">
                    <mxGeometry width="100" height="100" relative="1" as="geometry">
                        <mxPoint x="30" y="425" as="sourcePoint"/>
                        <mxPoint x="130" y="325" as="targetPoint"/>
                    </mxGeometry>
                </mxCell>
                <mxCell id="K0uxiHMsOOJmmkQa4cCR-81" value="" style="edgeStyle=entityRelationEdgeStyle;fontSize=12;html=1;endArrow=ERzeroToMany;rounded=0;entryX=0;entryY=0;entryDx=0;entryDy=0;startArrow=ERone;startFill=0;endFill=1;exitX=1;exitY=0.75;exitDx=0;exitDy=0;" parent="1" target="K0uxiHMsOOJmmkQa4cCR-22" edge="1" source="K0uxiHMsOOJmmkQa4cCR-41">
                    <mxGeometry width="100" height="100" relative="1" as="geometry">
                        <mxPoint x="60" y="545" as="sourcePoint"/>
                        <mxPoint x="160" y="445" as="targetPoint"/>
                    </mxGeometry>
                </mxCell>
                <mxCell id="K0uxiHMsOOJmmkQa4cCR-82" value="&lt;b&gt;WishedWines_User&lt;/b&gt;" style="rounded=0;whiteSpace=wrap;html=1;" parent="1" vertex="1">
                    <mxGeometry x="-140" y="215" width="200" height="30" as="geometry"/>
                </mxCell>
                <mxCell id="K0uxiHMsOOJmmkQa4cCR-103" style="edgeStyle=none;rounded=0;orthogonalLoop=1;jettySize=auto;html=1;exitX=0;exitY=0.75;exitDx=0;exitDy=0;entryX=1;entryY=0.5;entryDx=0;entryDy=0;startArrow=ERone;startFill=0;endArrow=ERzeroToMany;endFill=1;" parent="1" source="oQ7m4SgAl_C9msteWYQ--10" target="K0uxiHMsOOJmmkQa4cCR-83" edge="1">
                    <mxGeometry relative="1" as="geometry"/>
                </mxCell>
                <mxCell id="K0uxiHMsOOJmmkQa4cCR-83" value="&lt;b&gt;id INT AUTO_INCREMENT &lt;/b&gt;" style="rounded=0;whiteSpace=wrap;html=1;" parent="1" vertex="1">
                    <mxGeometry x="-100" y="245" width="160" height="30" as="geometry"/>
                </mxCell>
                <mxCell id="K0uxiHMsOOJmmkQa4cCR-84" value="&lt;b&gt;PK&lt;/b&gt;" style="rounded=0;whiteSpace=wrap;html=1;" parent="1" vertex="1">
                    <mxGeometry x="-140" y="245" width="40" height="30" as="geometry"/>
                </mxCell>
                <mxCell id="K0uxiHMsOOJmmkQa4cCR-85" value="&lt;b&gt;user_id INT NOT NULL&lt;/b&gt;" style="rounded=0;whiteSpace=wrap;html=1;" parent="1" vertex="1">
                    <mxGeometry x="-100" y="275" width="160" height="35" as="geometry"/>
                </mxCell>
                <mxCell id="K0uxiHMsOOJmmkQa4cCR-86" value="&lt;b&gt;desejados_id INT NOT NULL&lt;/b&gt;" style="rounded=0;whiteSpace=wrap;html=1;" parent="1" vertex="1">
                    <mxGeometry x="-100" y="305" width="160" height="30" as="geometry"/>
                </mxCell>
                <mxCell id="K0uxiHMsOOJmmkQa4cCR-87" value="&lt;b&gt;FK&lt;/b&gt;" style="rounded=0;whiteSpace=wrap;html=1;" parent="1" vertex="1">
                    <mxGeometry x="-140" y="275" width="40" height="30" as="geometry"/>
                </mxCell>
                <mxCell id="K0uxiHMsOOJmmkQa4cCR-88" value="&lt;b&gt;FK&lt;/b&gt;" style="rounded=0;whiteSpace=wrap;html=1;" parent="1" vertex="1">
                    <mxGeometry x="-140" y="305" width="40" height="30" as="geometry"/>
                </mxCell>
                <mxCell id="K0uxiHMsOOJmmkQa4cCR-89" value="&lt;b&gt;Favorites_User&lt;/b&gt;" style="rounded=0;whiteSpace=wrap;html=1;" parent="1" vertex="1">
                    <mxGeometry x="-140" y="60" width="200" height="30" as="geometry"/>
                </mxCell>
                <mxCell id="K0uxiHMsOOJmmkQa4cCR-90" value="&lt;b&gt;id INT AUTO_INCREMENT &lt;/b&gt;" style="rounded=0;whiteSpace=wrap;html=1;" parent="1" vertex="1">
                    <mxGeometry x="-100" y="90" width="160" height="30" as="geometry"/>
                </mxCell>
                <mxCell id="K0uxiHMsOOJmmkQa4cCR-91" value="&lt;b&gt;PK&lt;/b&gt;" style="rounded=0;whiteSpace=wrap;html=1;" parent="1" vertex="1">
                    <mxGeometry x="-140" y="90" width="40" height="30" as="geometry"/>
                </mxCell>
                <mxCell id="K0uxiHMsOOJmmkQa4cCR-92" value="&lt;b&gt;user_id INT NOT NULL&lt;/b&gt;" style="rounded=0;whiteSpace=wrap;html=1;" parent="1" vertex="1">
                    <mxGeometry x="-100" y="120" width="160" height="30" as="geometry"/>
                </mxCell>
                <mxCell id="K0uxiHMsOOJmmkQa4cCR-93" value="&lt;b&gt;favoritos_id INT NOT NULL&lt;/b&gt;" style="rounded=0;whiteSpace=wrap;html=1;" parent="1" vertex="1">
                    <mxGeometry x="-100" y="150" width="160" height="30" as="geometry"/>
                </mxCell>
                <mxCell id="K0uxiHMsOOJmmkQa4cCR-94" value="&lt;b&gt;FK&lt;/b&gt;" style="rounded=0;whiteSpace=wrap;html=1;" parent="1" vertex="1">
                    <mxGeometry x="-140" y="120" width="40" height="30" as="geometry"/>
                </mxCell>
                <mxCell id="K0uxiHMsOOJmmkQa4cCR-95" value="&lt;b&gt;FK&lt;/b&gt;" style="rounded=0;whiteSpace=wrap;html=1;" parent="1" vertex="1">
                    <mxGeometry x="-140" y="150" width="40" height="30" as="geometry"/>
                </mxCell>
                <mxCell id="K0uxiHMsOOJmmkQa4cCR-96" value="" style="edgeStyle=entityRelationEdgeStyle;fontSize=12;html=1;endArrow=ERzeroToMany;rounded=0;entryX=1;entryY=0.5;entryDx=0;entryDy=0;exitX=0;exitY=0.5;exitDx=0;exitDy=0;endFill=1;startArrow=ERone;startFill=0;" parent="1" source="C-vyLk0tnHw3VtMMgP7b-24" target="K0uxiHMsOOJmmkQa4cCR-92" edge="1">
                    <mxGeometry width="100" height="100" relative="1" as="geometry">
                        <mxPoint x="120" y="135" as="sourcePoint"/>
                        <mxPoint x="20" y="235" as="targetPoint"/>
                    </mxGeometry>
                </mxCell>
                <mxCell id="K0uxiHMsOOJmmkQa4cCR-104" value="" style="edgeStyle=entityRelationEdgeStyle;fontSize=12;html=1;endArrow=ERzeroToMany;rounded=0;exitX=1;exitY=0.5;exitDx=0;exitDy=0;startArrow=ERone;startFill=0;endFill=1;" parent="1" source="oQ7m4SgAl_C9msteWYQ--22" edge="1">
                    <mxGeometry width="100" height="100" relative="1" as="geometry">
                        <mxPoint x="-220" y="170" as="sourcePoint"/>
                        <mxPoint x="-140" y="145" as="targetPoint"/>
                    </mxGeometry>
                </mxCell>
                <mxCell id="K0uxiHMsOOJmmkQa4cCR-105" value="" style="edgeStyle=entityRelationEdgeStyle;fontSize=12;html=1;endArrow=ERzeroToMany;rounded=0;exitX=1;exitY=0;exitDx=0;exitDy=0;endFill=1;startArrow=ERone;startFill=0;" parent="1" source="K0uxiHMsOOJmmkQa4cCR-108" edge="1">
                    <mxGeometry width="100" height="100" relative="1" as="geometry">
                        <mxPoint x="-240" y="365" as="sourcePoint"/>
                        <mxPoint x="-140" y="265" as="targetPoint"/>
                    </mxGeometry>
                </mxCell>
                <mxCell id="K0uxiHMsOOJmmkQa4cCR-107" value="tipo_uva VARCHAR(30)" style="rounded=0;whiteSpace=wrap;html=1;" parent="1" vertex="1">
                    <mxGeometry x="-430" y="120" width="205" height="30" as="geometry"/>
                </mxCell>
                <mxCell id="K0uxiHMsOOJmmkQa4cCR-108" value="regiao VARCHAR(30)" style="rounded=0;whiteSpace=wrap;html=1;" parent="1" vertex="1">
                    <mxGeometry x="-430" y="150" width="205" height="30" as="geometry"/>
                </mxCell>
                <mxCell id="K0uxiHMsOOJmmkQa4cCR-109" value="safra VARCHAR(30)" style="rounded=0;whiteSpace=wrap;html=1;" parent="1" vertex="1">
                    <mxGeometry x="-430" y="180" width="205" height="30" as="geometry"/>
                </mxCell>
                <mxCell id="2" value="" style="shape=table;html=1;whiteSpace=wrap;startSize=0;container=1;collapsible=0;childLayout=tableLayout;" parent="1" vertex="1">
                    <mxGeometry x="120" y="290" width="250" height="30" as="geometry"/>
                </mxCell>
                <mxCell id="3" value="" style="shape=partialRectangle;html=1;whiteSpace=wrap;collapsible=0;dropTarget=0;pointerEvents=0;fillColor=none;top=0;left=0;bottom=0;right=0;points=[[0,0.5],[1,0.5]];portConstraint=eastwest;" parent="2" vertex="1">
                    <mxGeometry width="250" height="30" as="geometry"/>
                </mxCell>
                <mxCell id="4" value="profilePicture VARCHAR(50)" style="shape=partialRectangle;html=1;whiteSpace=wrap;connectable=0;overflow=hidden;fillColor=none;top=0;left=0;bottom=0;right=0;" parent="3" vertex="1">
                    <mxGeometry width="250" height="30" as="geometry"/>
                </mxCell>
                <mxCell id="5" value="" style="shape=partialRectangle;html=1;whiteSpace=wrap;connectable=0;overflow=hidden;fillColor=none;top=0;left=0;bottom=0;right=0;" parent="1" vertex="1">
                    <mxGeometry x="120" y="320" width="250" height="30" as="geometry"/>
                </mxCell>
                <mxCell id="6" value="" style="shape=table;html=1;whiteSpace=wrap;startSize=0;container=1;collapsible=0;childLayout=tableLayout;" parent="1" vertex="1">
                    <mxGeometry x="120" y="320" width="250" height="30" as="geometry"/>
                </mxCell>
                <mxCell id="7" value="" style="shape=partialRectangle;html=1;whiteSpace=wrap;collapsible=0;dropTarget=0;pointerEvents=0;fillColor=none;top=0;left=0;bottom=0;right=0;points=[[0,0.5],[1,0.5]];portConstraint=eastwest;" parent="6" vertex="1">
                    <mxGeometry width="250" height="30" as="geometry"/>
                </mxCell>
                <mxCell id="8" value="backgroundPicture VARCHAR(50)" style="shape=partialRectangle;html=1;whiteSpace=wrap;connectable=0;overflow=hidden;fillColor=none;top=0;left=0;bottom=0;right=0;" parent="7" vertex="1">
                    <mxGeometry width="250" height="30" as="geometry"/>
                </mxCell>
                <mxCell id="9" value="" style="shape=table;html=1;whiteSpace=wrap;startSize=0;container=1;collapsible=0;childLayout=tableLayout;" parent="1" vertex="1">
                    <mxGeometry x="120" y="350" width="250" height="30" as="geometry"/>
                </mxCell>
                <mxCell id="10" value="" style="shape=partialRectangle;html=1;whiteSpace=wrap;collapsible=0;dropTarget=0;pointerEvents=0;fillColor=none;top=0;left=0;bottom=0;right=0;points=[[0,0.5],[1,0.5]];portConstraint=eastwest;" parent="9" vertex="1">
                    <mxGeometry width="250" height="30" as="geometry"/>
                </mxCell>
                <mxCell id="11" value="userDescription VARCHAR(5000)" style="shape=partialRectangle;html=1;whiteSpace=wrap;connectable=0;overflow=hidden;fillColor=none;top=0;left=0;bottom=0;right=0;" parent="10" vertex="1">
                    <mxGeometry width="250" height="30" as="geometry"/>
                </mxCell>
                <mxCell id="12" value="" style="shape=table;html=1;whiteSpace=wrap;startSize=0;container=1;collapsible=0;childLayout=tableLayout;" parent="1" vertex="1">
                    <mxGeometry x="460" y="410" width="250" height="30" as="geometry"/>
                </mxCell>
                <mxCell id="13" value="" style="shape=partialRectangle;html=1;whiteSpace=wrap;collapsible=0;dropTarget=0;pointerEvents=0;fillColor=none;top=0;left=0;bottom=0;right=0;points=[[0,0.5],[1,0.5]];portConstraint=eastwest;" parent="12" vertex="1">
                    <mxGeometry width="250" height="30" as="geometry"/>
                </mxCell>
                <mxCell id="14" value="description VARCHAR(255)" style="shape=partialRectangle;html=1;whiteSpace=wrap;connectable=0;overflow=hidden;fillColor=none;top=0;left=0;bottom=0;right=0;" parent="13" vertex="1">
                    <mxGeometry width="250" height="30" as="geometry"/>
                </mxCell>
                <mxCell id="18" value="" style="shape=table;html=1;whiteSpace=wrap;startSize=0;container=1;collapsible=0;childLayout=tableLayout;" parent="1" vertex="1">
                    <mxGeometry x="460" y="440" width="250" height="30" as="geometry"/>
                </mxCell>
                <mxCell id="19" value="" style="shape=partialRectangle;html=1;whiteSpace=wrap;collapsible=0;dropTarget=0;pointerEvents=0;fillColor=none;top=0;left=0;bottom=0;right=0;points=[[0,0.5],[1,0.5]];portConstraint=eastwest;" parent="18" vertex="1">
                    <mxGeometry width="250" height="30" as="geometry"/>
                </mxCell>
                <mxCell id="20" value="background_pic VARCHAR(255)" style="shape=partialRectangle;html=1;whiteSpace=wrap;connectable=0;overflow=hidden;fillColor=none;top=0;left=0;bottom=0;right=0;" parent="19" vertex="1">
                    <mxGeometry width="250" height="30" as="geometry"/>
                </mxCell>
                <mxCell id="21" value="" style="shape=table;html=1;whiteSpace=wrap;startSize=0;container=1;collapsible=0;childLayout=tableLayout;" parent="1" vertex="1">
                    <mxGeometry x="120" y="380" width="250" height="30" as="geometry"/>
                </mxCell>
                <mxCell id="22" value="" style="shape=partialRectangle;html=1;whiteSpace=wrap;collapsible=0;dropTarget=0;pointerEvents=0;fillColor=none;top=0;left=0;bottom=0;right=0;points=[[0,0.5],[1,0.5]];portConstraint=eastwest;" parent="21" vertex="1">
                    <mxGeometry width="250" height="30" as="geometry"/>
                </mxCell>
                <mxCell id="23" value="birthday DATE NOT NULL" style="shape=partialRectangle;html=1;whiteSpace=wrap;connectable=0;overflow=hidden;fillColor=none;top=0;left=0;bottom=0;right=0;" parent="22" vertex="1">
                    <mxGeometry width="250" height="30" as="geometry"/>
                </mxCell>
                <mxCell id="24" value="" style="shape=table;html=1;whiteSpace=wrap;startSize=0;container=1;collapsible=0;childLayout=tableLayout;" parent="1" vertex="1">
                    <mxGeometry x="120" y="440" width="250" height="30" as="geometry"/>
                </mxCell>
                <mxCell id="25" value="" style="shape=partialRectangle;html=1;whiteSpace=wrap;collapsible=0;dropTarget=0;pointerEvents=0;fillColor=none;top=0;left=0;bottom=0;right=0;points=[[0,0.5],[1,0.5]];portConstraint=eastwest;" parent="24" vertex="1">
                    <mxGeometry width="250" height="30" as="geometry"/>
                </mxCell>
                <mxCell id="26" value="createdAt DATE" style="shape=partialRectangle;html=1;whiteSpace=wrap;connectable=0;overflow=hidden;fillColor=none;top=0;left=0;bottom=0;right=0;" parent="25" vertex="1">
                    <mxGeometry width="250" height="30" as="geometry"/>
                </mxCell>
                <mxCell id="27" value="" style="shape=table;html=1;whiteSpace=wrap;startSize=0;container=1;collapsible=0;childLayout=tableLayout;" parent="1" vertex="1">
                    <mxGeometry x="120" y="470" width="250" height="30" as="geometry"/>
                </mxCell>
                <mxCell id="28" value="" style="shape=partialRectangle;html=1;whiteSpace=wrap;collapsible=0;dropTarget=0;pointerEvents=0;fillColor=none;top=0;left=0;bottom=0;right=0;points=[[0,0.5],[1,0.5]];portConstraint=eastwest;" parent="27" vertex="1">
                    <mxGeometry width="250" height="30" as="geometry"/>
                </mxCell>
                <mxCell id="29" value="modifiedAt DATE" style="shape=partialRectangle;html=1;whiteSpace=wrap;connectable=0;overflow=hidden;fillColor=none;top=0;left=0;bottom=0;right=0;" parent="28" vertex="1">
                    <mxGeometry width="250" height="30" as="geometry"/>
                </mxCell>
                <mxCell id="30" value="" style="shape=table;html=1;whiteSpace=wrap;startSize=0;container=1;collapsible=0;childLayout=tableLayout;" parent="1" vertex="1">
                    <mxGeometry x="460" y="470" width="250" height="30" as="geometry"/>
                </mxCell>
                <mxCell id="31" value="" style="shape=partialRectangle;html=1;whiteSpace=wrap;collapsible=0;dropTarget=0;pointerEvents=0;fillColor=none;top=0;left=0;bottom=0;right=0;points=[[0,0.5],[1,0.5]];portConstraint=eastwest;" parent="30" vertex="1">
                    <mxGeometry width="250" height="30" as="geometry"/>
                </mxCell>
                <mxCell id="32" value="createdAt DATE" style="shape=partialRectangle;html=1;whiteSpace=wrap;connectable=0;overflow=hidden;fillColor=none;top=0;left=0;bottom=0;right=0;" parent="31" vertex="1">
                    <mxGeometry width="250" height="30" as="geometry"/>
                </mxCell>
                <mxCell id="33" value="" style="shape=table;html=1;whiteSpace=wrap;startSize=0;container=1;collapsible=0;childLayout=tableLayout;" parent="1" vertex="1">
                    <mxGeometry x="460" y="500" width="250" height="30" as="geometry"/>
                </mxCell>
                <mxCell id="34" value="" style="shape=partialRectangle;html=1;whiteSpace=wrap;collapsible=0;dropTarget=0;pointerEvents=0;fillColor=none;top=0;left=0;bottom=0;right=0;points=[[0,0.5],[1,0.5]];portConstraint=eastwest;" parent="33" vertex="1">
                    <mxGeometry width="250" height="30" as="geometry"/>
                </mxCell>
                <mxCell id="35" value="modifiedAt DATE" style="shape=partialRectangle;html=1;whiteSpace=wrap;connectable=0;overflow=hidden;fillColor=none;top=0;left=0;bottom=0;right=0;" parent="34" vertex="1">
                    <mxGeometry width="250" height="30" as="geometry"/>
                </mxCell>
                <mxCell id="37" value="name VARCHAR(255) NOT NULL" style="rounded=0;whiteSpace=wrap;html=1;" parent="1" vertex="1">
                    <mxGeometry x="460" y="740" width="250" height="30" as="geometry"/>
                </mxCell>
                <mxCell id="46" value="&lt;b&gt;Posts_Pictures&lt;/b&gt;&lt;b&gt;&lt;br&gt;&lt;/b&gt;" style="rounded=0;whiteSpace=wrap;html=1;" parent="1" vertex="1">
                    <mxGeometry x="130" y="930" width="240" height="30" as="geometry"/>
                </mxCell>
                <mxCell id="47" value="&lt;b&gt;id INT AUTO_INCREMENT&lt;/b&gt;" style="rounded=0;whiteSpace=wrap;html=1;" parent="1" vertex="1">
                    <mxGeometry x="160" y="960" width="210" height="30" as="geometry"/>
                </mxCell>
                <mxCell id="48" value="&lt;b&gt;PK&lt;/b&gt;" style="rounded=0;whiteSpace=wrap;html=1;" parent="1" vertex="1">
                    <mxGeometry x="130" y="960" width="30" height="30" as="geometry"/>
                </mxCell>
                <mxCell id="49" value="&lt;b&gt;path VARCHAR(1024) NOT NULL&lt;/b&gt;" style="rounded=0;whiteSpace=wrap;html=1;" parent="1" vertex="1">
                    <mxGeometry x="130" y="1020" width="240" height="30" as="geometry"/>
                </mxCell>
                <mxCell id="51" value="&lt;b&gt;posts_id NOT NULL&lt;/b&gt;" style="rounded=0;whiteSpace=wrap;html=1;" parent="1" vertex="1">
                    <mxGeometry x="130" y="990" width="240" height="30" as="geometry"/>
                </mxCell>
                <mxCell id="53" value="&lt;b&gt;FK&lt;/b&gt;" style="rounded=0;whiteSpace=wrap;html=1;" parent="1" vertex="1">
                    <mxGeometry x="130" y="990" width="30" height="30" as="geometry"/>
                </mxCell>
                <mxCell id="54" value="" style="fontSize=12;html=1;endArrow=ERzeroToMany;rounded=0;exitX=0;exitY=0.75;exitDx=0;exitDy=0;startArrow=ERone;startFill=0;endFill=1;" parent="1" source="K0uxiHMsOOJmmkQa4cCR-25" edge="1">
                    <mxGeometry width="100" height="100" relative="1" as="geometry">
                        <mxPoint x="150" y="765" as="sourcePoint"/>
                        <mxPoint x="130" y="985" as="targetPoint"/>
                        <Array as="points">
                            <mxPoint x="100" y="838"/>
                            <mxPoint x="100" y="990"/>
                            <mxPoint x="120" y="985"/>
                        </Array>
                    </mxGeometry>
                </mxCell>
                <mxCell id="55" value="&lt;b&gt;Posts_Videos&lt;/b&gt;&lt;b&gt;&lt;br&gt;&lt;/b&gt;" style="rounded=0;whiteSpace=wrap;html=1;" parent="1" vertex="1">
                    <mxGeometry x="-250" y="785" width="240" height="30" as="geometry"/>
                </mxCell>
                <mxCell id="56" value="&lt;b&gt;id INT AUTO_INCREMENT&lt;/b&gt;" style="rounded=0;whiteSpace=wrap;html=1;" parent="1" vertex="1">
                    <mxGeometry x="-220" y="815" width="210" height="30" as="geometry"/>
                </mxCell>
                <mxCell id="57" value="&lt;b&gt;PK&lt;/b&gt;" style="rounded=0;whiteSpace=wrap;html=1;" parent="1" vertex="1">
                    <mxGeometry x="-250" y="815" width="30" height="30" as="geometry"/>
                </mxCell>
                <mxCell id="58" value="&lt;b&gt;path VARCHAR(1024) NOT NULL&lt;/b&gt;" style="rounded=0;whiteSpace=wrap;html=1;" parent="1" vertex="1">
                    <mxGeometry x="-250" y="875" width="240" height="30" as="geometry"/>
                </mxCell>
                <mxCell id="59" value="&lt;b&gt;posts_id NOT NULL&lt;/b&gt;" style="rounded=0;whiteSpace=wrap;html=1;" parent="1" vertex="1">
                    <mxGeometry x="-250" y="845" width="240" height="30" as="geometry"/>
                </mxCell>
                <mxCell id="60" value="&lt;b&gt;FK&lt;/b&gt;" style="rounded=0;whiteSpace=wrap;html=1;" parent="1" vertex="1">
                    <mxGeometry x="-250" y="845" width="30" height="30" as="geometry"/>
                </mxCell>
                <mxCell id="62" value="" style="fontSize=12;html=1;endArrow=ERzeroToMany;rounded=0;exitX=0;exitY=0.5;exitDx=0;exitDy=0;entryX=1;entryY=0.5;entryDx=0;entryDy=0;startArrow=ERone;startFill=0;endFill=1;" parent="1" source="K0uxiHMsOOJmmkQa4cCR-28" target="59" edge="1">
                    <mxGeometry width="100" height="100" relative="1" as="geometry">
                        <mxPoint x="135" y="810" as="sourcePoint"/>
                        <mxPoint x="60" y="780" as="targetPoint"/>
                        <Array as="points">
                            <mxPoint x="80" y="860"/>
                        </Array>
                    </mxGeometry>
                </mxCell>
                <mxCell id="63" value="" style="shape=table;html=1;whiteSpace=wrap;startSize=0;container=1;collapsible=0;childLayout=tableLayout;" vertex="1" parent="1">
                    <mxGeometry x="120" y="410" width="250" height="30" as="geometry"/>
                </mxCell>
                <mxCell id="64" value="" style="shape=partialRectangle;html=1;whiteSpace=wrap;collapsible=0;dropTarget=0;pointerEvents=0;fillColor=none;top=0;left=0;bottom=0;right=0;points=[[0,0.5],[1,0.5]];portConstraint=eastwest;" vertex="1" parent="63">
                    <mxGeometry width="250" height="30" as="geometry"/>
                </mxCell>
                <mxCell id="65" value="provider BOOLEAN DEFAULT false" style="shape=partialRectangle;html=1;whiteSpace=wrap;connectable=0;overflow=hidden;fillColor=none;top=0;left=0;bottom=0;right=0;" vertex="1" parent="64">
                    <mxGeometry width="250" height="30" as="geometry"/>
                </mxCell>
                <mxCell id="67" style="edgeStyle=orthogonalEdgeStyle;rounded=0;orthogonalLoop=1;jettySize=auto;html=1;exitX=0;exitY=0.5;exitDx=0;exitDy=0;entryX=0;entryY=0.25;entryDx=0;entryDy=0;endArrow=ERzeroToMany;endFill=1;" edge="1" parent="1" source="3" target="K0uxiHMsOOJmmkQa4cCR-20">
                    <mxGeometry relative="1" as="geometry">
                        <Array as="points">
                            <mxPoint x="100" y="305"/>
                            <mxPoint x="100" y="763"/>
                        </Array>
                    </mxGeometry>
                </mxCell>
            </root>
        </mxGraphModel>
    </diagram>
</mxfile>